{"title":"Shottas.2002.DVDRip.XviD.AC3-THC","uid":9240184,"size":1341559424,"categoryP":"video","categoryS":"movies","magnet":"?xt=urn:btih:cfcba4fb0335ac22c7c84d2b7e4d35c4e33d8cd1&amp;dn=Shottas.2002.DVDRip.XviD.AC3-THC&amp;tr=udp%3A%2F%2Ftracker.openbittorrent.com%3A80&amp;tr=udp%3A%2F%2Fopen.demonii.com%3A1337&amp;tr=udp%3A%2F%2Ftracker.coppersurfer.tk%3A6969&amp;tr=udp%3A%2F%2Fexodus.desync.com%3A6969","seeders":32,"leechers":2,"uploader":"nitro1111","files":-1,"time":1385252094,"description":"Video\nID                                       : 0\nFormat                                   : MPEG-4 Visual\nFormat profile                           : Advanced Simple@L5\nFormat settings, BVOP                    : 2\nFormat settings, QPel                    : No\nFormat settings, GMC                     : No warppoints\nFormat settings, Matrix                  : Default (H.263)\nMuxing mode                              : Packed bitstream\nCodec ID                                 : DX50\nCodec ID/Hint                            : DivX 5\nDuration                                 : 1h 38mn\nBit rate                                 : 1 351 Kbps\nWidth                                    : 720 pixels\nHeight                                   : 392 pixels\nDisplay aspect ratio                     : 1.85:1\nFrame rate                               : 23.976 fps\nColor space                              : YUV\nChroma subsampling                       : 4:2:0\nBit depth                                : 8 bits\nScan type                                : Progressive\nCompression mode                         : Lossy\nBits/(Pixel*Frame)                       : 0.200\nStream size                              : 954 MiB (75%)\nWriting library                          : XviD 1.2.1 (UTC 2008-12-04)\n\nAudio\nID                                       : 1\nFormat                                   : AC-3\nFormat/Info                              : Audio Coding 3\nMode extension                           : CM (complete main)\nFormat settings, Endianness              : Big\nCodec ID                                 : 2000\nDuration                                 : 1h 38mn\nBit rate mode                            : Constant\nBit rate                                 : 448 Kbps\nChannel count                            : 6 channels\nChannel positions                        : Front: L C R, Side: L R, LFE\nSampling rate                            : 48.0 KHz\nBit depth                                : 16 bits\nCompression mode                         : Lossy\nStream size                              : 316 MiB (25%)\n\nThumbnails: &lt;a href=&quot;\nhttp://img10.imageshack.us/img10/2102/9naf.jpg&quot; rel=&quot;nofollow&quot; target=&quot;_NEW&quot;&gt;\nhttp://img10.imageshack.us/img10/2102/9naf.jpg&lt;/a&gt;","torrent":{"xt":"urn:btih:cfcba4fb0335ac22c7c84d2b7e4d35c4e33d8cd1","amp;dn":"Shottas.2002.DVDRip.XviD.AC3-THC","amp;tr":["udp%3A%2F%2Ftracker.openbittorrent.com%3A80","udp%3A%2F%2Fopen.demonii.com%3A1337","udp%3A%2F%2Ftracker.coppersurfer.tk%3A6969","udp%3A%2F%2Fexodus.desync.com%3A6969"],"infoHash":"cfcba4fb0335ac22c7c84d2b7e4d35c4e33d8cd1","infoHashBuffer":{"type":"Buffer","data":[207,203,164,251,3,53,172,34,199,200,77,43,126,77,53,196,227,61,140,209]},"announce":[],"urlList":[]}}